<?xml version="1.0" encoding="UTF-8"?><svg id="a" xmlns="http://www.w3.org/2000/svg" viewBox="0 0 2200.03 1503.97">
<svg viewBox="0 0 100 100" xmlns="http://www.w3.org/2000/svg">
  <style>
    /* Default to pure black for light mode tabs */
    path { fill: #000000; } 
    
    /* Switch to pure white if the user's system is in Dark Mode */
    @media (prefers-color-scheme: dark) {
      path { fill: #FFFFFF; }
    }
  </style>
  
  <path d="..." />
</svg>
<path d="M1359.71,1503.97h-60c-1.42-1.99-4-2.53-6.88-3.26-77.23-19.59-127.45-89.38-122.24-168.97,2.43-37.2,13.12-71.35,31.63-103.91s41.49-65.62,74.09-91.99l-31.92,63.18c-10.75,21.27-19.28,42.88-20.33,67.38,26.75-68.09,43.12-84.34,88.26-137.82,28.14-33.33,62.68-84.88,37.24-129.85,1.35,43.27-16.85,80.58-51.81,102.94-7.21,4.62-13.62,10.15-23.35,11.98,33.3-31.28,62.29-75.98,34.44-118.88-10.19-15.7-29.5-28.77-51.13-29.81-10.76-.52-20.91,2.99-31.25,5.28-37.81,8.37-75,14.8-113.44,12.2,94.08-13.52,183.94-63.38,257.74-120.98,21.78-17,42.52-32.12,66.63-45.44,76.3-42.15,168.22-58.61,248.64-20.8-68.31-8.03-118.96-8.12-181.41,24.4,97.49,5.74,170.77,71.98,167.44,170.15s-82.01,148.85-66.06,221.5c5.42,24.68,18.74,45.99,37.82,62.86,37.68,33.31,89.33,43.57,137.85,30.59,19.66-5.26,35.83-15.19,53.96-23.52-34.26,45.68-90,65.31-144.25,56.64-34.95-5.58-64.33-21.89-88.76-46.52-42.81-43.16-54.76-103.37-33.04-160.22,8.16-21.37,15.3-42.33,19-65.01,7.7-47.22-9.24-91.35-46.06-121.54-38.03-31.18-83.95-35.76-134.31-26.65,47.14,46.85,50.61,119.11,19.39,174.51-46.89,83.23-152.31,129.52-183.07,222.88-12.97,39.36-3.43,82.62,27.54,110.77,27.74,25.22,68.67,32.23,102.89,18.16,38.2-15.72,57.66-58.55,40.94-95.55-9.84-21.79-31.8-33.29-54.17-30.54-22.03,2.7-39.32,19.7-43.39,42.09-5.43-18,.3-35.71,13.01-48.99,19.09-19.95,48.45-24.65,74.72-14.81,33.45,12.53,54.22,43.3,57.52,79.35,4.87,53.07-28.45,100.91-78.18,119.34-9.16,3.4-17.78,5.07-25.71,8.87ZM1574.47,927.24c33.05,24.91,46.96,58.15,50.15,97.7,12.1-37.39,5-80.05-16.56-112.99-25.26-38.61-88.3-59.04-130.66-46.63,52.63,3.8,98.47,22.41,122.82,70.59-8.97-4.16-15.82-13.85-25.75-8.66ZM1368.94,1118.88c21.6-18.34,36.14-41.02,45.68-66.42,17.52-46.68,1.51-98.44-38.93-127.44-12.14,1.37-23.19,4.01-33.55,10.85,43.26,22.18,61.84,66.46,54.9,112.08-3.94,25.87-16.36,46.09-28.1,70.93Z"/><path d="M897.71,1503.97h-58c-14.48-5.52-29.15-8.89-43.6-16.88-40.48-22.38-64.5-65.03-60.39-111.69,3.1-35.2,24.72-66.44,57.49-78.9,25.17-9.57,52.52-5.41,71.62,12.13,14.47,13.29,21.47,30.92,16.62,50.97-6.33-24.46-24.27-40.72-47.04-41.9s-43.51,11.53-52.26,33.64c-12.99,32.82,1.08,70.53,32.59,88.19,47.21,26.45,107.46,7.46,132.83-40.01,15.54-29.08,16.71-61.02,4.64-91.5-33.11-83.63-118.49-125.46-169.77-198.35-41.94-59.63-44.41-137.58,8.52-191.44-22.98-4.35-43.32-5.76-65.18-2.97-55.46,7.07-100.43,45.09-114.02,99.45-6.16,24.63-4.52,49.4,3.3,73.31l18.2,55.66c17.03,52.07,2.93,106.22-34.67,145.69-65.9,69.18-177.95,68.91-236.82-9.32,19.49,10.41,37.38,20.45,58.99,25.67,49.64,11.99,102.21-.42,138.84-35.25s44.93-81.17,25.25-125.08c-24.27-54.17-51.57-86.68-57.31-146.99-7.11-102.42,62.08-168.96,164.05-178.47-55.39-31.33-117.54-39.51-178.23-36.85,112.98-30.74,187.48,4.99,279.89,61.79l95.42,58.65c51.01,31.36,107.09,49.35,166.83,57.27,1.73.23,5.24-2.39,6.02.23,1.3,4.38-21.2,3.54-5.87,1.86-29.33,3.21-57.33,2.14-86.41-.85-18.28-1.88-36.49,2.15-52.76,10.17-31.31,15.43-44.58,50.76-32.91,83.33,7.93,22.12,21.58,38.41,38.52,57.47-24.46-9.89-45.25-28.21-58.86-51.86-10.97-19.06-12.86-39.11-13.79-62.69-24.28,42.89,6.59,93.53,33.64,126.01l40.89,49.1c22.26,26.73,37.62,56.28,48.93,88.98,3.82-27.15-27.39-82.6-40.62-106.67-3.46-6.3-7.58-11.99-8.65-18.82,29.79,24.31,50.74,52.37,69.19,83.39,21.16,35.58,34.23,73.95,35.98,115.25,3.34,78.97-47.58,146.91-124.06,165.01-3.06.72-5.6,1.31-7.03,3.3ZM623.61,926.93c-13.39-3.15-15.32,5.96-23.87,7.1,23.72-46.46,69.63-64.48,120.4-68.77-25.44-7.05-51.33-3.23-76.3,6.23-63.49,24.06-84.19,87.38-71.75,150.64,3.37-2.03,3.79-6.23,4.21-10.26,3.63-35.02,21.74-63.59,47.31-84.94ZM800.86,1028.97c-.24-40.79,20.17-73.98,56.31-93.3-10.28-4.85-22.27-10.14-33.04-9.91-40.44,26.75-55.94,77.83-40.33,123.67,8.76,25.71,23.11,50.22,44.51,66.82-14.49-29.98-27.7-54.98-27.45-87.29Z"/><path d="M961.49,904.48c-112.78-42.25-187.8-125.07-313.44-151.49-76.05-16-153.47-.58-216.36,44.66-55.59,40-71.88,92.55-127.38,132.32-34.31,24.59-75.87,34.05-116.7,21.42,86.68-11.09,110.94-58.35,150.99-126.87,30.82-52.73,68.34-98.57,131.42-112.6-21.69,12.93-47.62,22.36-58.84,47.19,55.25-48.44,99.96-60.5,169.39-71.56,18.13-2.89,35.6-5.39,53.22-10.91,86.55-27.14,123.05-61.96,192.7-113.56,81.3-60.24,155.16-90.95,258.01-95.35,65.23-2.79,129.03,10.43,188.1,37.7,84.38,38.95,135.33,87.08,229.63,116.85,89.23,28.16,183.88,22.19,256.1-41.25,42.21-37.08,59.03-101.46,133.91-113.89,1.32-.26,2.66-2.32,3.55-.17,1.02,2.47-.49,1.86-2.29,2.75-72.2,35.8-57.84,117.67-156.92,174.7-62.95,36.24-116.61,40.25-181.73,64.04-72.45,26.47-102.16,52.63-160.74,99.68-28.73,23.08-56.87,44.42-88.68,63.09-108.53,63.69-223.63,78.31-343.92,33.25ZM918.87,823.27c36.05,18.81,73.81,34.87,116.28,38.68-58.22-25.96-101.46-71.65-115.5-133.04-17.63-77.09,13.49-151.1,78.5-199.57-56.66,8.44-106.21,33.2-149.54,65.06l-76.21,56.03c-25.5,18.75-51.44,33.43-83.01,45.35l52.26,20.82c43.71,17.41,123.69,78.74,177.22,106.68ZM1251.88,686.11c0-84.13-68.2-152.33-152.33-152.33s-152.33,68.2-152.33,152.33,68.2,152.33,152.33,152.33,152.33-68.2,152.33-152.33ZM1419.46,739.07c26.87-20.5,53.63-35.55,85.7-50.05-42.95-13.12-82.04-29.67-118.95-53.92l-79.67-52.36c-28.03-15.09-53.15-33.7-88.25-41.65,38.5,37.89,62.45,82.43,65.57,135.63,4.85,82.62-43.77,151.71-120.39,185.89,72.74-6.5,137.14-36.14,193.59-76.77l62.39-46.78Z"/><path d="M1638.29,605.95c4.55.35,8.28-5.32,10.31.63-64.6,21.25-147.04-3.46-203.53-36.35l-63.22-36.8c-28.49-16.59-55.13-32.67-84.96-47.33-67.1-32.97-139.78-50.56-215.15-46.91-95.95,4.65-184.32,39.02-260.39,94.5,46.26-55.74,106.96-91.5,172.46-115.1,69.01-24.87,141.58-29.56,213.65-15.74,41.53,7.97,79.8,20.27,119.3,34.62,63.91,23.22,128.7,42.29,195.43,19.61,56.96-22.91,86.37-66.2,92.95-125.7,11.07,36.7,1.53,70.47-16.43,106.94,64.51-36.38,79.31-116.5,45.04-179.91l-35.78-66.19c-34.07-63.03-30.45-144.69,36.59-180.9,41.02-22.16,92.13-10.99,118.83,26.79-17.95-10.87-36.39-18.47-57.58-19.26-35.12-1.3-64.37,19.36-75.45,52.61-8.16,24.5-4.99,50.02,5.73,73.6,26.07,57.36,58.57,72.3,83.59,128.28,2.36-24.88-7.35-45.01-14.86-66.38,14.71,17.99,25.45,36.31,31.5,57.73,25.93,91.73-4.45,197.53-85.21,248.53,46.95-66.96,69.5-165.77,15.83-234.62,7.82,30.5,15.14,57,12.36,87.58-8.42,92.74-94.45,152.59-181.77,164.87,51.38,8.09,102.73-8.99,143.18-42.42-9.37,24.4-27.59,41.79-49.5,54.58-26.33,15.37-54.92,18.84-87.55,22.52,40.97,25.98,87.17,36.52,134.61,40.21Z"/><path d="M689.43,566.47c-31.21-5.3-58.82-8.89-83.85-24.55-21.17-13.23-37.83-30.87-47.61-53.78,39.73,34.35,92.4,50.45,143.92,43.03l-18.33-3.74c-89.22-18.19-168.58-86.27-164.51-183.46.94-22.42,8.05-41.67,12.47-65.24-52.4,69.21-29.92,166.21,16.63,234.55-81.13-51.52-111.42-157.97-84.85-250.26,6.04-20.97,17.19-38.49,31.31-55.99-7.77,20.42-17.25,40.16-14.77,64.54,26.69-55.18,58.43-71.67,83.74-128.18,10.97-24.48,13.19-51.28,3.57-76.14s-29.55-42.37-56.24-47.22c-27.18-4.93-53.45,4.46-75.64,19.13,19.86-29.69,53.83-43.38,88.86-38.04,48.13,7.33,83.13,49.3,87.83,97.73,3.13,32.29-4.46,63.65-19.91,91.98l-32.47,59.53c-13.48,24.72-22.09,50.7-22.04,79.79.07,44.32,24.12,86.68,62.96,108.21-19.09-39.46-27.75-68.17-16.56-107.42,7.36,73,54.08,123.32,127.27,134.31,48.83,7.33,96.44-3.78,142.05-21.17,30.18-11.51,58.69-24.23,89.7-32.6-43.69,23.8-84.96,46.09-120.47,79.05l-62.26,57.82c-54.49,50.6-133.5,83.96-207.79,57.29,47.82,1.47,96.32-7.86,136.99-39.18Z"/><path d="M1860.84,582.3c4.48-5.99,10.17-8.41,15.38-7.44,17.58,3.25,6.66,29.87,5.48,39.96,12.56-9.51,21.93-30.67,11.69-43.37-3.56-4.42-9.23-6.52-17.2-7.17,9.72-16.04,21.71-30.24,30.24-48.99-16.31,11.73-24.52,28.36-36.92,42.65-16.86,19.42-33.57,38.26-56.81,49.14,24.96-28.79,47-54.82,68.25-84.12,37.21-51.31,81.95-98.22,143.08-119.89,65.8-23.33,142.36-1.59,176,60.65-52.25-36.88-106.38-53.86-166.05-21.95-85.09,45.5-96.73,137.62-171.1,209.56-21.19,20.5-47.72,44.82-77.27,49.64-26.62-3.15-52.35-20.08-83.49-17.63,62.27-13.96,118.68-47.47,158.72-101.02Z"/><path d="M348.45,1111.11c-53.17,56.92-38.59,142.12,16.73,197.52,23.89,23.93,53.61,38.72,84.02,48.52-50.69,4.46-105.51-21.62-136.54-55.57-42.54-46.54-55.73-111.52-32.68-169.85,15.77-39.92,46.26-71.78,86.41-86.13,42.42-15.16,88.11-7.22,121.17,22.36,22.93,20.52,36,48.51,34.53,79.08-1.37,28.5-15.75,54.36-40.87,66.45,16.73-22.25,23.41-46.27,16.3-72.74-5.68-21.13-21.52-40.65-44.46-50.96-35.82-16.11-77.18-8.06-104.61,21.3Z"/><path d="M1749.71,1357.05c67.73-19.48,126.57-74.54,133.15-148.86,5.98-67.56-40.17-132.09-108.19-126.15-30.32,2.64-56.22,20.41-68.08,45.37-14.07,29.6-7.94,60.81,11.31,87.02-32.32-18.46-46.74-53.82-38.98-90.16,7.2-33.69,30.03-60.59,61.67-75.09,43.9-20.13,94.22-11.98,131.47,18.47,72.31,59.11,77.88,167.03,13.37,234.86-33.19,34.9-86.28,58.94-135.72,54.56Z"/><path d="M2013.01,951.19c-62.24,20.45-125.58-15.8-162.09-62.16l-35.25-44.74c-68.35-86.77-182.04-109.84-285.41-85.11,84.11-60.04,184.46-60.59,262.01,5.33-13.96-26.58-39.83-40.05-64.65-51.4,2.87-3.48,6.68.36,10.31,1.36,23.98,6.61,44.7,17.61,63.37,34.16,85.04,75.38,78.4,187.21,211.71,202.56Z"/><path d="M1155.62,665.61c14.76-2.05,23.14-12.9,28.08-25.96,15.54,28.66,15.91,62.04-.11,92.21-12.97,24.42-38.56,44.64-70,49.2-56.34,8.19-107.1-34.2-109.63-90.88-1.58-35.36,14.72-66.85,42.33-85.11,29.01-19.18,66.1-22.61,97.51-5.11-17.78,6.64-27.87,21.9-24.69,38.93,3.04,16.31,17.77,29.33,36.51,26.72Z"/><path d="M315.61,612.08c-1.01-12.33-8.34-33.27,5.97-36.8,5.65-1.39,11.43.37,15.39,5.72,39.67,53.66,96.7,88.92,163.42,101.42-30.13,2.11-58.65,8.44-86.27,21.18-37.7-15.29-68.77-38.59-94.24-69.46-23.27-28.22-42.62-57.53-60.51-89.35-24.57-43.7-53.74-82.91-99.35-105.66-59.33-29.6-113.09-8.76-160.02,23.56,14.48-28.04,37.58-46.19,64.37-57.6,65.22-27.77,136.84-1.41,186.86,43.46,24.86,22.29,46.38,46.43,66.02,73.54,21.1,29.13,42.78,55.5,66.49,83.2-23.88-10.68-39.72-29.98-55.85-49.31-12.11-14.51-21.14-30.32-36.76-42.41l30.03,50.81c-12.62-.18-22.22,9.06-20.27,21.68,1.58,10.19,6.92,20.39,14.71,26Z"/><path d="M660.46,630.84c-31.67,18.04-65.8,28.96-102.65,32.96-53.08,5.76-107.57-10.48-144.54-49.07-16.19-16.9-23.94-38.51-36.02-57.83-17.37-36.88-36.94-70.44-73.57-88.43,48.25.64,80.55,41.53,106.11,77.19,22.18,30.95,49.62,54.81,85.23,69.78,42.38,17.81,88.33,24.41,134.12,20.76l31.31-5.35Z"/></svg>