<?xml version="1.0" encoding="UTF-8"?><svg id="a" xmlns="http://www.w3.org/2000/svg" viewBox="0 0 2200.03 1504.01"><defs><style>.b{fill:none;}</style></defs><path class="b" d="M1359.71,1503.98h-60c-1.42-1.99-4-2.53-6.88-3.26-77.23-19.59-127.45-89.38-122.24-168.97,2.43-37.2,13.12-71.35,31.63-103.91s41.49-65.62,74.09-91.99l-31.92,63.18c-10.75,21.27-19.28,42.88-20.33,67.38,26.75-68.09,43.12-84.34,88.26-137.82,28.14-33.33,62.68-84.88,37.24-129.85,1.35,43.27-16.85,80.58-51.81,102.94-7.21,4.62-13.62,10.15-23.35,11.98,33.3-31.28,62.29-75.98,34.44-118.88-10.19-15.7-29.5-28.77-51.13-29.81-10.76-.52-20.91,2.99-31.25,5.28-37.81,8.37-75,14.8-113.44,12.2,94.08-13.52,183.94-63.38,257.74-120.98,21.78-17,42.52-32.12,66.63-45.44,76.3-42.15,168.22-58.61,248.64-20.8-68.31-8.03-118.96-8.12-181.41,24.4,97.49,5.74,170.77,71.98,167.44,170.15s-82.01,148.85-66.06,221.5c5.42,24.68,18.74,45.99,37.82,62.86,37.68,33.31,89.33,43.57,137.85,30.59,19.66-5.26,35.83-15.19,53.96-23.52-34.26,45.68-90,65.31-144.25,56.64-34.95-5.58-64.33-21.89-88.76-46.52-42.81-43.16-54.76-103.37-33.04-160.22,8.16-21.37,15.3-42.33,19-65.01,7.7-47.22-9.24-91.35-46.06-121.54-38.03-31.18-83.95-35.76-134.31-26.65,47.14,46.85,50.61,119.11,19.39,174.51-46.89,83.23-152.31,129.52-183.07,222.88-12.97,39.36-3.43,82.62,27.54,110.77,27.74,25.22,68.67,32.23,102.89,18.16,38.2-15.72,57.66-58.55,40.94-95.55-9.84-21.79-31.8-33.29-54.17-30.54-22.03,2.7-39.32,19.7-43.39,42.09-5.43-18,.3-35.71,13.01-48.99,19.09-19.95,48.45-24.65,74.72-14.81,33.45,12.53,54.22,43.3,57.52,79.35,4.87,53.07-28.45,100.91-78.18,119.34-9.16,3.4-17.78,5.07-25.71,8.87h.01ZM1574.47,927.25c33.05,24.91,46.96,58.15,50.15,97.7,12.1-37.39,5-80.05-16.56-112.99-25.26-38.61-88.3-59.04-130.66-46.63,52.63,3.8,98.47,22.41,122.82,70.59-8.97-4.16-15.82-13.85-25.75-8.66h0ZM1368.94,1118.89c21.6-18.34,36.14-41.02,45.68-66.42,17.52-46.68,1.51-98.44-38.93-127.44-12.14,1.37-23.19,4.01-33.55,10.85,43.26,22.18,61.84,66.46,54.9,112.08-3.94,25.87-16.36,46.09-28.1,70.93Z"/><path d="M1301.04,1500.98c-1.92-1.77-4.48-2.42-6.96-3.04l-.52-.13c-75.78-19.22-125.12-87.43-119.98-165.87,2.37-36.24,12.59-69.8,31.25-102.62,12.78-22.47,32.57-54.18,61.96-81.28l-25.07,49.63c-9.57,18.93-19.5,41.89-20.65,68.61l5.79,1.22c24.51-62.38,40.11-80.78,77.81-125.23,3.16-3.72,6.47-7.62,9.95-11.75,45.51-53.9,57.79-97.49,37.56-133.26l-5.61,1.57c1.34,43.03-16.57,78.66-50.43,100.32-1.45.93-2.88,1.9-4.25,2.84-1.57,1.07-3.11,2.12-4.68,3.1,36.95-39.54,45.59-78.92,24.16-111.95-11.64-17.93-32.64-30.17-53.5-31.17-.77-.04-1.54-.06-2.31-.06-7.85,0-15.36,1.88-22.62,3.69-2.33.58-4.75,1.19-7.11,1.71-25.74,5.7-53.23,11.03-81.61,12.38,92.25-20.97,173.96-73.38,228.41-115.87,19.56-15.26,41.12-31.3,66.23-45.18,49.26-27.21,101.12-41.6,149.97-41.6,26.91,0,52.64,4.36,76.76,12.97-16.53-1.55-30.29-2.27-43.03-2.27-43.72,0-80.51,9.01-119.3,29.21l-9.63,5.02,10.84.64c47.43,2.79,89.9,20.39,119.6,49.56,31.02,30.47,46.59,71.09,45.02,117.49-1.6,47.04-21.16,83.78-38.41,116.2-18.52,34.79-36.01,67.65-27.58,106.05,5.38,24.51,18.79,46.8,38.76,64.46,26.83,23.72,61.92,36.79,98.78,36.79,14.01,0,28.08-1.87,41.83-5.54,14.32-3.83,27.01-10.18,39.28-16.32.94-.47,1.89-.95,2.85-1.42-27.27,30-65.96,46.96-108.09,46.97-8.19,0-16.48-.66-24.63-1.96-32.96-5.26-62.26-20.63-87.1-45.67-41.75-42.1-53.85-100.8-32.37-157.04,7.67-20.09,15.3-41.94,19.16-65.6,7.83-48.05-9.34-93.37-47.12-124.34-25.84-21.19-56.35-31.49-93.26-31.49-13.43,0-28.06,1.42-43.49,4.21l-5.66,1.02,4.08,4.06c22.04,21.91,35.26,50.33,38.21,82.2,2.79,30.15-4.07,61.65-19.32,88.71-20.38,36.17-52.65,65.95-83.87,94.74-40.29,37.17-81.96,75.61-99.44,128.67-13.79,41.84-2.91,85.49,28.37,113.93,18.51,16.83,42.76,26.09,68.28,26.09,13.16,0,25.86-2.48,37.77-7.38,19.97-8.22,35.88-24.15,43.65-43.71,7.28-18.33,6.88-38.16-1.11-55.85-9.11-20.17-28.41-32.71-50.36-32.71-2.29,0-4.62.14-6.91.42-18.78,2.3-34.48,14.49-42.05,31.7-.07-11.97,4.82-23.74,14.21-33.54,11.63-12.16,27.81-18.85,45.56-18.85,8.75,0,17.48,1.61,25.94,4.78,31.48,11.79,52.26,40.51,55.59,76.81,2.3,25.04-3.97,49.5-18.12,70.72-13.71,20.55-34.35,36.72-58.11,45.53-3.59,1.33-7.14,2.41-10.58,3.45-5.13,1.55-9.99,3.02-14.74,5.23h-58.01ZM1375.35,922.05c-10.56,1.19-22.96,3.47-34.87,11.33l-4.29,2.83,4.57,2.34c39.98,20.5,60.41,62.25,53.3,108.96-3.05,20-11.51,37-20.46,55-2.42,4.86-4.92,9.89-7.38,15.1l4.65,3.57c20.88-17.73,36.11-39.86,46.55-67.65,17.8-47.44,1.36-101.28-39.99-130.93l-.94-.67-1.15.13ZM1580.17,922.77c-2.37,0-4.75.62-7.08,1.83l-4.21,2.2,3.79,2.86c29.96,22.59,45.52,52.95,48.96,95.54l5.84.68c12.17-37.6,5.85-80.8-16.91-115.56-19.56-29.91-64.18-51.61-106.08-51.61-10.06,0-19.46,1.26-27.94,3.74l.63,5.87c54.7,3.95,92.33,23.21,114.61,58.76-3.55-2.33-7.3-4.31-11.63-4.31Z"/><path class="b" d="M897.71,1503.98h-58c-14.48-5.52-29.15-8.89-43.6-16.88-40.48-22.38-64.5-65.03-60.39-111.69,3.1-35.2,24.72-66.44,57.49-78.9,25.17-9.57,52.52-5.41,71.62,12.13,14.47,13.29,21.47,30.92,16.62,50.97-6.33-24.46-24.27-40.72-47.04-41.9s-43.51,11.53-52.26,33.64c-12.99,32.82,1.08,70.53,32.59,88.19,47.21,26.45,107.46,7.46,132.83-40.01,15.54-29.08,16.71-61.02,4.64-91.5-33.11-83.63-118.49-125.46-169.77-198.35-41.94-59.63-44.41-137.58,8.52-191.44-22.98-4.35-43.32-5.76-65.18-2.97-55.46,7.07-100.43,45.09-114.02,99.45-6.16,24.63-4.52,49.4,3.3,73.31l18.2,55.66c17.03,52.07,2.93,106.22-34.67,145.69-65.9,69.18-177.95,68.91-236.82-9.32,19.49,10.41,37.38,20.45,58.99,25.67,49.64,11.99,102.21-.42,138.84-35.25s44.93-81.17,25.25-125.08c-24.27-54.17-51.57-86.68-57.31-146.99-7.11-102.42,62.08-168.96,164.05-178.47-55.39-31.33-117.54-39.51-178.23-36.85,112.98-30.74,187.48,4.99,279.89,61.79l95.42,58.65c51.01,31.36,107.09,49.35,166.83,57.27,1.73.23,5.24-2.39,6.02.23,1.3,4.38-21.2,3.54-5.87,1.86-29.33,3.21-57.33,2.14-86.41-.85-18.28-1.88-36.49,2.15-52.76,10.17-31.31,15.43-44.58,50.76-32.91,83.33,7.93,22.12,21.58,38.41,38.52,57.47-24.46-9.89-45.25-28.21-58.86-51.86-10.97-19.06-12.86-39.11-13.79-62.69-24.28,42.89,6.59,93.53,33.64,126.01l40.89,49.1c22.26,26.73,37.62,56.28,48.93,88.98,3.82-27.15-27.39-82.6-40.62-106.67-3.46-6.3-7.58-11.99-8.65-18.82,29.79,24.31,50.74,52.37,69.19,83.39,21.16,35.58,34.23,73.95,35.98,115.25,3.34,78.97-47.58,146.91-124.06,165.01-3.06.72-5.6,1.31-7.03,3.3v-.03ZM623.61,926.94c-13.39-3.15-15.32,5.96-23.87,7.1,23.72-46.46,69.63-64.48,120.4-68.77-25.44-7.05-51.33-3.23-76.3,6.23-63.49,24.06-84.19,87.38-71.75,150.64,3.37-2.03,3.79-6.23,4.21-10.26,3.63-35.02,21.74-63.59,47.31-84.94h0ZM800.86,1028.98c-.24-40.79,20.17-73.98,56.31-93.3-10.28-4.85-22.27-10.14-33.04-9.91-40.44,26.75-55.94,77.83-40.33,123.67,8.76,25.71,23.11,50.22,44.51,66.82-14.49-29.98-27.7-54.98-27.45-87.29h0Z"/><path d="M840.26,1500.98c-4.53-1.71-9.12-3.24-13.57-4.71-9.61-3.19-19.55-6.5-29.13-11.79-40.25-22.25-62.8-63.95-58.85-108.8,3.06-34.71,24.87-64.69,55.57-76.36,8.42-3.2,17.07-4.82,25.72-4.82,16.12,0,31.32,5.81,42.8,16.36,8.27,7.59,17.06,19.49,17.2,35.8-8.86-18.98-25.44-30.9-45.43-31.94-1.02-.05-2.05-.08-3.07-.08-23.47,0-43.45,13.65-52.14,35.61-13.46,34.02,1.12,73.53,33.91,91.91,14.46,8.1,30.9,12.39,47.53,12.39,37.48,0,71.74-20.54,89.41-53.6,15.79-29.54,17.44-62.05,4.78-94.02-19.79-49.99-58.65-85.82-96.24-120.46-26.07-24.04-53.04-48.89-73.87-78.51-43.95-62.49-40.66-137.89,8.21-187.61l3.94-4.01-5.52-1.04c-16.08-3.04-29.79-4.46-43.13-4.46-7.75,0-15.27.48-22.99,1.46-57.18,7.29-102.93,47.21-116.55,101.7-6.08,24.33-4.95,49.55,3.36,74.97l18.2,55.66c16.31,49.88,3.61,103.22-33.99,142.69-30.11,31.61-71.89,49.75-114.61,49.75-41.55,0-80.11-17-107.91-47.13,14.72,7.73,29.29,14.65,46.16,18.72,12.45,3.01,25.21,4.53,37.92,4.53,39.38,0,76.21-14.39,103.69-40.53,36.66-34.86,46.35-82.89,25.92-128.48-6.95-15.5-14.08-29.12-20.97-42.3-17.19-32.83-32.04-61.19-36.09-103.75-6.71-96.63,56.62-165.43,161.34-175.2l9.52-.89-8.33-4.71c-43.12-24.39-92.76-36.73-151.54-37.65,17.57-3.28,34.47-4.89,51.14-4.89,33.7,0,65.64,6.49,100.5,20.42,34.04,13.61,67.47,33.14,98.52,52.23l95.42,58.65c44.41,27.3,95.29,45.84,151.46,55.21-6.45.37-12.99.55-19.75.55-15.1,0-30.76-.89-49.26-2.79-3.05-.31-6.16-.47-9.25-.47-15.02,0-30.63,3.78-45.14,10.94-32.3,15.92-46.77,52.52-34.41,87.03,6.48,18.08,16.72,32.38,29.46,47.4-18.16-10.26-33.62-25.61-44.38-44.3-10.9-18.93-12.51-38.97-13.39-61.31l-.42-10.53-5.19,9.17c-24.69,43.62,4.83,94.45,33.95,129.41l40.89,49.1c20.66,24.81,36.49,53.6,48.4,88.04l5.81-.56c3.83-27.2-25.45-80.37-39.52-105.92l-1.44-2.62c-.75-1.38-1.54-2.72-2.32-4.06-.67-1.14-1.32-2.26-1.94-3.38,22.06,19.72,40.75,43.3,59.6,74.99,21.96,36.93,33.93,75.23,35.56,113.84,3.28,77.62-46.78,144.22-121.75,161.96-2.88.68-5.61,1.32-7.64,3.19h-56.15ZM824.81,922.77c-.25,0-.5,0-.74,0l-.87.02-.72.48c-40.75,26.96-57.83,79.24-41.51,127.14,9.98,29.28,25.71,52.87,45.51,68.22l4.54-3.68c-.91-1.88-1.81-3.74-2.71-5.59-13.24-27.25-24.67-50.79-24.44-80.37-.23-39.5,19.21-71.68,54.72-90.67l5.26-2.81-5.4-2.55c-10.46-4.94-22.56-10.2-33.64-10.2ZM692.98,858.64c-15.69,0-32.58,3.38-50.2,10.06-71.31,27.02-84.79,97.28-73.63,154.02l.83,4.2,3.67-2.21c4.63-2.79,5.19-8.15,5.64-12.45,3.3-31.82,19.29-60.5,46.26-83.01l4.61-3.85-5.84-1.37c-2.08-.49-4.06-.74-5.88-.74-5.16,0-8.5,1.91-11.35,3.84,10.67-17.25,25.47-30.89,44.11-40.62,18.8-9.81,42.09-15.95,69.21-18.24l.55-5.88c-8.96-2.48-18.37-3.74-27.97-3.74Z"/><path class="b" d="M961.49,904.49c-112.78-42.25-187.8-125.07-313.44-151.49-76.05-16-153.47-.58-216.36,44.66-55.59,40-71.88,92.55-127.38,132.32-34.31,24.59-75.87,34.05-116.7,21.42,86.68-11.09,110.94-58.35,150.99-126.87,30.82-52.73,68.34-98.57,131.42-112.6-21.69,12.93-47.62,22.36-58.84,47.19,55.25-48.44,99.96-60.5,169.39-71.56,18.13-2.89,35.6-5.39,53.22-10.91,86.55-27.14,123.05-61.96,192.7-113.56,81.3-60.24,155.16-90.95,258.01-95.35,65.23-2.79,129.03,10.43,188.1,37.7,84.38,38.95,135.33,87.08,229.63,116.85,89.23,28.16,183.88,22.19,256.1-41.25,42.21-37.08,59.03-101.46,133.91-113.89,1.32-.26,2.66-2.32,3.55-.17,1.02,2.47-.49,1.86-2.29,2.75-72.2,35.8-57.84,117.67-156.92,174.7-62.95,36.24-116.61,40.25-181.73,64.04-72.45,26.47-102.16,52.63-160.74,99.68-28.73,23.08-56.87,44.42-88.68,63.09-108.53,63.69-223.63,78.31-343.92,33.25h-.02ZM918.87,823.28c36.05,18.81,73.81,34.87,116.28,38.68-58.22-25.96-101.46-71.65-115.5-133.04-17.63-77.09,13.49-151.1,78.5-199.57-56.66,8.44-106.21,33.2-149.54,65.06l-76.21,56.03c-25.5,18.75-51.44,33.43-83.01,45.35l52.26,20.82c43.71,17.41,123.69,78.74,177.22,106.68h0ZM1251.88,686.12c0-84.13-68.2-152.33-152.33-152.33s-152.33,68.2-152.33,152.33,68.2,152.33,152.33,152.33,152.33-68.2,152.33-152.33ZM1419.46,739.08c26.87-20.5,53.63-35.55,85.7-50.05-42.95-13.12-82.04-29.67-118.95-53.92l-79.67-52.36c-28.03-15.09-53.15-33.7-88.25-41.65,38.5,37.89,62.45,82.43,65.57,135.63,4.85,82.62-43.77,151.71-120.39,185.89,72.74-6.5,137.14-36.14,193.59-76.77l62.39-46.78h.01Z"/><path d="M224.35,953.99c-7.23,0-14.46-.66-21.6-1.96,73.27-14.12,99.01-58.29,133.81-118.03,1.52-2.62,3.07-5.27,4.64-7.95,23.12-39.56,52.97-81.27,101.08-102.02-13.84,8.19-26.64,17.97-33.82,33.86l4.71,3.49c52.6-46.12,94.31-59.13,167.88-70.85l4.71-.75c16.78-2.65,32.64-5.16,48.94-10.26,73.61-23.08,111.21-51.65,163.26-91.18,9.6-7.29,19.53-14.83,30.33-22.84,85.25-63.17,159.52-90.62,256.35-94.76,5.63-.24,11.35-.36,16.98-.36,58.31,0,115.42,12.71,169.73,37.79,33.37,15.4,61.78,32.42,89.25,48.88,42.97,25.74,83.55,50.06,140.74,68.11,34.06,10.75,67.65,16.2,99.85,16.2,61.74,0,115.28-19.53,159.13-58.06,13.78-12.11,25.07-27.29,35.98-41.98,21.44-28.86,43.57-58.63,86.7-69.21-28.34,17.32-42.37,42.73-57.14,69.5-18.19,32.96-38.81,70.32-90.76,100.23-40,23.03-76.1,32.9-114.32,43.35-21.35,5.84-43.43,11.88-66.95,20.47-68.21,24.92-99.19,49.88-150.51,91.24-3.58,2.89-7.27,5.86-11.07,8.91-26.41,21.22-55.39,43.51-88.32,62.84-66.66,39.12-135.2,58.95-203.73,58.95-45.39,0-91.7-8.72-137.62-25.93l-.51-.19h-.02c-47.06-17.7-88.26-42.94-128.1-67.35-55.11-33.77-112.09-68.68-185.27-84.07-19.56-4.11-39.44-6.2-59.09-6.2-57.73,0-112.93,17.76-159.64,51.36-28.12,20.23-46.51,43.9-64.29,66.78-17.53,22.56-35.66,45.89-63.08,65.54-24.14,17.3-51.19,26.45-78.22,26.45ZM1216.19,543.24c40.03,39.39,61.79,84.37,64.68,133.67,2.3,39.24-7.78,77.03-29.15,109.28-20.8,31.38-51.74,56.87-89.47,73.7l1.49,5.73c66.4-5.93,132.03-31.95,195.08-77.32l60.36-45.25.02.02,2.09-1.58c24.96-19.04,51.21-34.37,85.12-49.7l7.25-3.28-7.61-2.32c-46.75-14.28-84.3-31.3-118.18-53.56l-79.78-52.43-.12-.06c-6.69-3.6-13.36-7.49-19.8-11.25-20.69-12.07-42.09-24.55-69.2-30.69l-10.28-2.33,7.51,7.39ZM921.87,828.21c31.72,16.3,69.65,32.85,113.01,36.74l1.49-5.73c-60.21-26.85-100.62-73.36-113.8-130.97-16.98-74.26,11.94-147.71,77.37-196.5l-2.24-5.37c-52.02,7.75-101.37,29.21-150.88,65.61l-76.21,56.03c-26.49,19.48-52.64,33.76-82.29,44.96l-7.23,2.73,59.44,23.68c24.05,9.58,60.29,33.32,95.34,56.28,28.38,18.59,57.73,37.82,81.6,50.28l4.39,2.29v-.03ZM1099.55,530.79c-85.65,0-155.33,69.68-155.33,155.33s69.68,155.33,155.33,155.33,155.33-69.68,155.33-155.33-69.68-155.33-155.33-155.33Z"/><path class="b" d="M1638.29,605.96c4.55.35,8.28-5.32,10.31.63-64.6,21.25-147.04-3.46-203.53-36.35l-63.22-36.8c-28.49-16.59-55.13-32.67-84.96-47.33-67.1-32.97-139.78-50.56-215.15-46.91-95.95,4.65-184.32,39.02-260.39,94.5,46.26-55.74,106.96-91.5,172.46-115.1,69.01-24.87,141.58-29.56,213.65-15.74,41.53,7.97,79.8,20.27,119.3,34.62,63.91,23.22,128.7,42.29,195.43,19.61,56.96-22.91,86.37-66.2,92.95-125.7,11.07,36.7,1.53,70.47-16.43,106.94,64.51-36.38,79.31-116.5,45.04-179.91l-35.78-66.19c-34.07-63.03-30.45-144.69,36.59-180.9,41.02-22.16,92.13-10.99,118.83,26.79-17.95-10.87-36.39-18.47-57.58-19.26-35.12-1.3-64.37,19.36-75.45,52.61-8.16,24.5-4.99,50.02,5.73,73.6,26.07,57.36,58.57,72.3,83.59,128.28,2.36-24.88-7.35-45.01-14.86-66.38,14.71,17.99,25.45,36.31,31.5,57.73,25.93,91.73-4.45,197.53-85.21,248.53,46.95-66.96,69.5-165.77,15.83-234.62,7.82,30.5,15.14,57,12.36,87.58-8.42,92.74-94.45,152.59-181.77,164.87,51.38,8.09,102.73-8.99,143.18-42.42-9.37,24.4-27.59,41.79-49.5,54.58-26.33,15.37-54.92,18.84-87.55,22.52,40.97,25.98,87.17,36.52,134.61,40.21h.02Z"/><path d="M1595.64,611.51c-46.17,0-101.89-16.4-149.06-43.86l-63.22-36.8c-4.22-2.46-8.39-4.9-12.55-7.33-24.22-14.17-47.09-27.56-72.6-40.1-64.41-31.65-130.64-47.69-196.87-47.69-6.56,0-13.2.16-19.75.48-84.19,4.08-166.99,31.81-240.97,80.49,39.66-40.98,90.36-72.27,154.2-95.27,42.75-15.4,87.57-23.22,133.23-23.22,26.01,0,52.54,2.56,78.83,7.6,44.63,8.57,85.12,22.24,118.84,34.49,39.91,14.5,86.44,29.97,133.58,29.97,22.49,0,43.37-3.38,63.84-10.34l.15-.06c51.07-20.54,82.09-58.21,92.41-112.09,4.78,33.13-6.98,63.41-19.7,89.22l-4.29,8.7,8.45-4.77c62.58-35.29,82.88-116.09,46.21-183.95l-35.78-66.19c-17.03-31.51-24.07-67.46-19.29-98.63,5.32-34.72,24.22-61.76,54.67-78.21,13.26-7.16,28.18-10.95,43.14-10.95,23.17,0,45.15,8.99,61.34,24.62-15.37-7.44-29.8-11.23-44.54-11.78-1.08-.04-2.16-.06-3.23-.06-35.12,0-63.93,20.97-75.17,54.72-7.92,23.76-5.89,49.97,5.84,75.79,13.21,29.05,28.16,47.5,42.63,65.35,14.72,18.16,28.62,35.31,40.96,62.91l4.65,10.4,1.08-11.34c1.69-17.82-2.65-33.38-7.91-48.21,8.71,13.18,14.76,26.23,18.68,40.09,12.69,44.89,11.78,93.83-2.56,137.79-13.35,40.91-36.97,74.73-68.76,98.68,41.51-67.03,58.79-159.03,7.19-225.22l-5.27,2.59,1.06,4.13c7.42,28.85,13.82,53.76,11.22,82.44-3.86,42.51-24.69,80.75-60.24,110.58-32.18,27.01-74.43,45.33-118.96,51.59l-.05,5.93c8.53,1.34,17.26,2.02,25.93,2.02,38.14,0,76.72-13.23,109.85-37.48-9.03,16.61-23.24,30.45-43.14,42.06-26.31,15.36-55.48,18.65-86.37,22.13l-8.46.95,7.19,4.56c35.17,22.3,76.07,35.09,128.21,40-10.9,2.15-22.48,3.23-34.62,3.23Z"/><path class="b" d="M689.43,566.48c-31.21-5.3-58.82-8.89-83.85-24.55-21.17-13.23-37.83-30.87-47.61-53.78,39.73,34.35,92.4,50.45,143.92,43.03l-18.33-3.74c-89.22-18.19-168.58-86.27-164.51-183.46.94-22.42,8.05-41.67,12.47-65.24-52.4,69.21-29.92,166.21,16.63,234.55-81.13-51.52-111.42-157.97-84.85-250.26,6.04-20.97,17.19-38.49,31.31-55.99-7.77,20.42-17.25,40.16-14.77,64.54,26.69-55.18,58.43-71.67,83.74-128.18,10.97-24.48,13.19-51.28,3.57-76.14s-29.55-42.37-56.24-47.22c-27.18-4.93-53.45,4.46-75.64,19.13,19.86-29.69,53.83-43.38,88.86-38.04,48.13,7.33,83.13,49.3,87.83,97.73,3.13,32.29-4.46,63.65-19.91,91.98l-32.47,59.53c-13.48,24.72-22.09,50.7-22.04,79.79.07,44.32,24.12,86.68,62.96,108.21-19.09-39.46-27.75-68.17-16.56-107.42,7.36,73,54.08,123.32,127.27,134.31,48.83,7.33,96.44-3.78,142.05-21.17,30.18-11.51,58.69-24.23,89.7-32.6-43.69,23.8-84.96,46.09-120.47,79.05l-62.26,57.82c-54.49,50.6-133.5,83.96-207.79,57.29,47.82,1.47,96.32-7.86,136.99-39.18h0Z"/><path d="M607.06,612.07c-11.37,0-22.58-1.18-33.49-3.51,46.35-1.9,85.9-15.23,117.68-39.71l5.44-4.19-6.76-1.15c-2.54-.43-5.06-.85-7.56-1.27-28.28-4.72-52.71-8.8-75.2-22.87-17.46-10.91-30.97-24.41-40.29-40.25,32.04,23.83,70.66,36.82,110.16,36.82,8.45,0,16.96-.61,25.29-1.81l.17-5.91-18.33-3.74c-45.25-9.23-86.33-30.98-115.68-61.25-32.24-33.26-48.3-74.46-46.43-119.14.6-14.27,3.77-27.33,7.14-41.16,1.83-7.53,3.72-15.32,5.29-23.65l-5.34-2.36c-52.91,69.89-29.99,162.07,8.38,225.35-32.14-24.2-55.97-58.4-69.31-99.75-14.29-44.28-15.01-93.52-2.01-138.67,3.6-12.5,9.24-24.45,17.69-37.21-4.97,13.87-8.72,28.51-7.02,45.24l1.07,10.54,4.61-9.54c12.76-26.38,26.92-44.1,40.61-61.24,14.72-18.43,29.94-37.49,43.17-67.02,11.76-26.25,13.05-54.11,3.63-78.45-10.17-26.29-31.5-44.18-58.5-49.09-5.02-.91-10.17-1.37-15.32-1.37-15.78,0-31.91,4.2-48.11,12.5,15.91-16.19,37.52-25.22,61.3-25.22,4.75,0,9.58.37,14.36,1.1,22.55,3.43,42.74,14.66,58.4,32.47,15.09,17.17,24.65,39.39,26.9,62.59,2.93,30.21-3.83,61.42-19.56,90.25l-32.47,59.53c-15.12,27.73-22.45,54.31-22.41,81.23.07,45.64,25.39,89.15,64.51,110.83l8.28,4.59-4.12-8.52c-16.59-34.3-24.73-59.23-19.9-89.58,12.52,65.84,59.18,110.49,127.46,120.74,10.28,1.54,20.91,2.32,31.59,2.32,34.06,0,69.64-7.52,111.97-23.66,7.85-3,15.69-6.11,23.28-9.13,12.62-5.02,24.84-9.87,37.21-14.26-33.94,18.9-65.93,38.45-94.36,64.84l-62.26,57.82c-45.11,41.89-100.19,65.91-151.12,65.91Z"/><path class="b" d="M1860.84,582.31c4.48-5.99,10.17-8.41,15.38-7.44,17.58,3.25,6.66,29.87,5.48,39.96,12.56-9.51,21.93-30.67,11.69-43.37-3.56-4.42-9.23-6.52-17.2-7.17,9.72-16.04,21.71-30.24,30.24-48.99-16.31,11.73-24.52,28.36-36.92,42.65-16.86,19.42-33.57,38.26-56.81,49.14,24.96-28.79,47-54.82,68.25-84.12,37.21-51.31,81.95-98.22,143.08-119.89,65.8-23.33,142.36-1.59,176,60.65-52.25-36.88-106.38-53.86-166.05-21.95-85.09,45.5-96.73,137.62-171.1,209.56-21.19,20.5-47.72,44.82-77.27,49.64-26.62-3.15-52.35-20.08-83.49-17.63,62.27-13.96,118.68-47.47,158.72-101.02v-.02Z"/><path d="M1785.54,697.95c-10.19-1.26-20.24-4.57-30.87-8.08-10.4-3.43-21.04-6.93-32.37-8.66,57.5-16.99,105.94-50.28,140.93-97.08l.46-.62c3.02-3.78,6.64-5.84,10.26-5.84.57,0,1.14.05,1.7.16,2.63.49,4.48,1.6,5.66,3.41,3.63,5.55.98,16.83-.95,25.06-.75,3.2-1.4,5.97-1.66,8.19l-.82,6.99,5.61-4.25c8.88-6.72,15.71-18.34,17.01-28.91.89-7.26-.77-13.74-4.79-18.74-3.22-4-7.89-6.48-14.52-7.67,2.62-4.12,5.37-8.14,8.23-12.33,6.91-10.12,14.06-20.6,19.72-33.03l4.67-10.26-9.15,6.58c-11.22,8.07-18.77,18.41-26.06,28.41-3.59,4.92-7.3,10.01-11.38,14.71-11.73,13.51-24.66,28.4-40.57,39.52,19.32-22.49,38.24-45.3,56.71-70.77,28.75-39.64,74.71-95.09,141.65-118.82,16.78-5.95,34.29-8.97,52.03-8.97,24.77,0,48.79,5.98,69.48,17.31,17.62,9.64,32.53,23.07,43.71,39.27-33-21.21-63.46-31.55-92.79-31.55-21.76,0-43.6,5.78-64.9,17.17-49.67,26.56-74.6,68.63-100.99,113.16-19.4,32.74-39.47,66.6-70.78,96.89-21.84,21.13-47.46,44.05-75.25,48.77Z"/><path class="b" d="M348.45,1111.12c-53.17,56.92-38.59,142.12,16.73,197.52,23.89,23.93,53.61,38.72,84.02,48.52-50.69,4.46-105.51-21.62-136.54-55.57-42.54-46.54-55.73-111.52-32.68-169.85,15.77-39.92,46.26-71.78,86.41-86.13,42.42-15.16,88.11-7.22,121.17,22.36,22.93,20.52,36,48.51,34.53,79.08-1.37,28.5-15.75,54.36-40.87,66.45,16.73-22.25,23.41-46.27,16.3-72.74-5.68-21.13-21.52-40.65-44.46-50.96-35.82-16.11-77.18-8.06-104.61,21.3v.02Z"/><path d="M432.84,1354.57c-42.14-1.58-88.97-23.28-117.97-55-42.2-46.17-54.5-110.05-32.1-166.72,15.83-40.08,46.68-70.84,84.63-84.41,13.63-4.87,27.65-7.34,41.69-7.34,28.33,0,55.49,10.34,76.47,29.11,23.01,20.59,34.92,47.83,33.53,76.7-1.15,23.82-11.32,44.25-27.85,56.93,11.94-20.61,15.03-42.03,9.17-63.85-6.16-22.92-23.41-42.71-46.13-52.92-12.44-5.59-25.54-8.43-38.95-8.43-26.22,0-50.76,10.8-69.08,30.42l-.81.86v.03c-49.98,54.5-42.51,140.61,17.61,200.81,18.37,18.4,41.3,32.82,69.79,43.81Z"/><path class="b" d="M1749.71,1357.06c67.73-19.48,126.57-74.54,133.15-148.86,5.98-67.56-40.17-132.09-108.19-126.15-30.32,2.64-56.22,20.41-68.08,45.37-14.07,29.6-7.94,60.81,11.31,87.02-32.32-18.46-46.74-53.82-38.98-90.16,7.2-33.69,30.03-60.59,61.67-75.09,43.9-20.13,94.22-11.98,131.47,18.47,72.31,59.11,77.88,167.03,13.37,234.86-33.19,34.9-86.28,58.94-135.72,54.56v-.02Z"/><path d="M1767.03,1354.49c67.1-25.25,113.07-81.05,118.82-146.02,3.21-36.31-8.51-72.89-31.37-97.86-18.85-20.59-44.12-31.94-71.15-31.94-2.94,0-5.94.13-8.92.39-30.99,2.7-58.01,20.73-70.53,47.07-11.82,24.86-10.52,51.85,3.41,77.28-9.24-7.78-16.44-17.45-21.15-28.52-6.52-15.32-8-32.6-4.29-49.98,6.85-32.05,28.71-58.66,59.99-72.99,15.57-7.14,32.12-10.76,49.18-10.76,28.29,0,56.4,10.24,79.14,28.83,33.9,27.71,54.08,67.08,56.83,110.83,2.75,43.91-13.19,87.52-43.73,119.63-30.41,31.98-74.48,52.36-116.23,54.03Z"/><path class="b" d="M2013.01,951.2c-62.24,20.45-125.58-15.8-162.09-62.16l-35.25-44.74c-68.35-86.77-182.04-109.84-285.41-85.11,84.11-60.04,184.46-60.59,262.01,5.33-13.96-26.58-39.83-40.05-64.65-51.4,2.87-3.48,6.68.36,10.31,1.36,23.98,6.61,44.7,17.61,63.37,34.16,85.04,75.38,78.4,187.21,211.71,202.56Z"/><path d="M1976.47,954.04c-52.01,0-97.74-34.54-123.19-66.86l-35.25-44.74c-48.56-61.64-123.02-95.59-209.67-95.59-21.04,0-42.31,2.05-63.42,6.11,36.85-23.18,76.74-35.36,116.21-35.36,46.64,0,91.31,17.01,129.18,49.2l4.6-3.68c-9.71-18.49-24.8-30.74-41.45-40.34,16.96,6.62,32.07,15.9,45.83,28.1,30.71,27.22,49.26,59.14,67.19,90.01,29.06,50.01,56.61,97.42,131.46,111.11-7.06,1.35-14.25,2.04-21.5,2.04Z"/><path class="b" d="M1155.62,665.62c14.76-2.05,23.14-12.9,28.08-25.96,15.54,28.66,15.91,62.04-.11,92.21-12.97,24.42-38.56,44.64-70,49.2-56.34,8.19-107.1-34.2-109.63-90.88-1.58-35.36,14.72-66.85,42.33-85.11,29.01-19.18,66.1-22.61,97.51-5.11-17.78,6.64-27.87,21.9-24.69,38.93,3.04,16.31,17.77,29.33,36.51,26.72Z"/><path d="M1099.62,779.09c-23.8,0-46.47-9.1-63.84-25.64-17.51-16.67-27.75-39.18-28.83-63.39-1.5-33.67,13.82-64.51,40.99-82.47,15.83-10.47,33.82-16,52.04-16,12.94,0,25.32,2.76,36.9,8.2-15.53,8.21-23.74,23.5-20.72,39.66,3.19,17.09,17.78,29.5,34.69,29.5h0c1.71,0,3.45-.12,5.18-.36,12.16-1.69,21.51-9.03,27.86-21.85,12.29,26.69,11.3,56.86-2.96,83.72-13.42,25.27-39.39,43.52-67.78,47.64-4.49.65-9.04.98-13.54.98Z"/><path class="b" d="M315.61,612.09c-1.01-12.33-8.34-33.27,5.97-36.8,5.65-1.39,11.43.37,15.39,5.72,39.67,53.66,96.7,88.92,163.42,101.42-30.13,2.11-58.65,8.44-86.27,21.18-37.7-15.29-68.77-38.59-94.24-69.46-23.27-28.22-42.62-57.53-60.51-89.35-24.57-43.7-53.74-82.91-99.35-105.66-59.33-29.6-113.09-8.76-160.02,23.56,14.48-28.04,37.58-46.19,64.37-57.6,65.22-27.77,136.84-1.41,186.86,43.46,24.86,22.29,46.38,46.43,66.02,73.54,21.1,29.13,42.78,55.5,66.49,83.2-23.88-10.68-39.72-29.98-55.85-49.31-12.11-14.51-21.14-30.32-36.76-42.41l30.03,50.81c-12.62-.18-22.22,9.06-20.27,21.68,1.58,10.19,6.92,20.39,14.71,26v.02Z"/><path d="M414.05,700.34c-36.34-14.95-66.4-37.24-91.86-68.1-21.92-26.58-41.05-54.83-60.21-88.91-21.9-38.95-50.98-82.11-100.63-106.87-19.35-9.65-39.35-14.55-59.44-14.55-29.57,0-59.3,9.94-92.77,31.14,13.07-19.63,31.99-34.79,56.39-45.19,17.36-7.39,35.89-11.14,55.07-11.14,43.43,0,90.31,19.71,128.62,54.07,24.31,21.8,45.77,45.7,65.59,73.07,18.98,26.21,38.39,50.03,55.87,70.73-15.37-10.41-27.26-24.65-39.67-39.53l-.83-.99c-3.61-4.32-7.01-8.85-10.29-13.23-7.72-10.29-15.71-20.94-26.93-29.63l-4.42,3.9,27.59,46.68c-5.42.95-10.21,3.56-13.56,7.47-4,4.66-5.65,10.8-4.65,17.27,1.78,11.46,7.88,22.18,15.92,27.98l-.95-1.13,5.7-1.53c-.22-2.68-.71-5.64-1.22-8.78-2.19-13.31-3.11-22.88,4.92-24.86.99-.24,1.99-.37,2.96-.37,3.68,0,6.89,1.72,9.3,4.96,36.54,49.42,87.07,83.22,146.95,98.53-24.4,3.27-46.61,9.54-67.46,19.01Z"/><path class="b" d="M660.46,630.85c-31.67,18.04-65.8,28.96-102.65,32.96-53.08,5.76-107.57-10.48-144.54-49.07-16.19-16.9-23.94-38.51-36.02-57.83-17.37-36.88-36.94-70.44-73.57-88.43,48.25.64,80.55,41.53,106.11,77.19,22.18,30.95,49.62,54.81,85.23,69.78,42.38,17.81,88.33,24.41,134.12,20.76l31.31-5.35h.01Z"/><path d="M536.95,661.94c-47.22,0-91.52-17.96-121.52-49.28-10.45-10.91-17.19-23.66-24.33-37.15-3.51-6.64-7.14-13.5-11.22-20.04-13.96-29.63-31.35-62.25-62.51-82.63,38.64,7.23,66.55,41.9,89.97,74.58,23.76,33.16,52.06,56.32,86.51,70.8,34.68,14.57,72.03,21.96,111.03,21.96h0c8.1,0,16.33-.33,24.48-.98h.13s12.62-2.17,12.62-2.17c-26.41,12.57-54.8,20.55-84.65,23.79-6.8.74-13.71,1.11-20.53,1.11Z"/></svg>